<svg width="361" height="220" viewBox="0 0 361 220" fill="none" xmlns="http://www.w3.org/2000/svg">
<path d="M26.4346 92.5L78.9346 4H109.935L64.9346 80.5H83.9621L111.574 34H140.771L101.935 101.5C93.9346 115.5 78.9346 115.5 72.4346 115.5H43.9346C23.9346 115.5 20.9346 102 26.4346 92.5Z" fill="#00B45C"/>
<path d="M149.435 115.5H120.435L172.849 26H154.849L167.435 4H250.253L236.843 26H202.343L149.435 115.5Z" fill="#00B45C"/>
<path d="M229.061 41H206.358L188.555 71H211.259L229.061 41Z" fill="#00B45C"/>
<path d="M246.435 79L250.935 97L304.982 4H335.352L270.435 115.5H228.023L218.935 79H246.435Z" fill="#00B45C"/>
<path fill-rule="evenodd" clip-rule="evenodd" d="M76.6566 0H116.928L71.9282 76.5H81.6852L109.297 30H147.688L105.408 103.485C105.406 103.486 105.405 103.488 105.404 103.49C96.2477 119.507 79.1297 119.502 72.6411 119.5C72.571 119.5 72.5022 119.5 72.4346 119.5H43.9346C33.0871 119.5 25.6563 115.792 22.1345 109.521C18.7023 103.41 19.7169 96.1198 22.9729 90.4959L22.9835 90.4775L76.6566 0ZM101.935 101.5L140.771 34H111.574L83.962 80.5H64.9346L109.935 4H78.9346L26.4346 92.5C20.9346 102 23.9346 115.5 43.9346 115.5H72.4346C78.9346 115.5 93.9346 115.5 101.935 101.5ZM113.457 119.5L165.871 30H147.952L165.115 0H257.376L239.09 30H204.625L151.717 119.5H113.457ZM202.343 26H236.843L250.253 4H167.435L154.849 26H172.849L120.435 115.5H149.435L202.343 26ZM204.08 37H236.086L213.536 75H181.531L204.08 37ZM246.435 79L250.935 97L304.982 4H335.352L270.435 115.5H228.023L218.935 79H246.435ZM252.426 86.473L302.68 0H342.31L272.734 119.5H224.897L213.816 75H249.558L252.426 86.473ZM206.358 41H229.061L211.259 71H188.555L206.358 41Z" fill="#BABAB8"/>
<path d="M0 152.937H4.18481V167.115C4.18481 168.336 4.28906 169.199 4.49756 169.706C4.71598 170.212 5.06844 170.619 5.55493 170.927C6.05135 171.225 6.64705 171.374 7.34204 171.374C8.07674 171.374 8.70719 171.205 9.2334 170.867C9.76953 170.53 10.1369 170.103 10.3354 169.587C10.5439 169.06 10.6482 168.063 10.6482 166.593V152.937H14.833V165.998C14.833 168.202 14.7089 169.731 14.4607 170.584C14.2125 171.438 13.7359 172.262 13.031 173.057C12.336 173.851 11.5318 174.442 10.6184 174.829C9.705 175.206 8.64266 175.395 7.4314 175.395C5.84285 175.395 4.45785 175.032 3.27637 174.308C2.10482 173.573 1.26587 172.66 0.759521 171.567C0.253174 170.465 0 168.609 0 165.998V152.937Z" fill="black"/>
<path d="M19.2412 158.641H23.292V160.294C24.2153 159.519 25.0493 158.983 25.7939 158.685C26.5485 158.378 27.318 158.224 28.1023 158.224C29.7107 158.224 31.0758 158.785 32.1978 159.906C33.1409 160.86 33.6125 162.269 33.6125 164.136V174.844H29.5916V167.74C29.5916 165.804 29.5022 164.518 29.3235 163.883C29.1547 163.247 28.8519 162.766 28.415 162.438C27.9881 162.101 27.4569 161.932 26.8215 161.932C25.9975 161.932 25.2876 162.21 24.6919 162.766C24.1061 163.312 23.6991 164.071 23.4707 165.044C23.3516 165.551 23.292 166.648 23.292 168.336V174.844H19.2412V158.641Z" fill="black"/>
<path d="M43.1438 158.641H47.2839L51.3794 168.202L55.46 158.641H59.5852L52.6899 174.844H50.054L43.1438 158.641Z" fill="black"/>
<path d="M78.2158 167.919H65.155C65.3437 169.07 65.8451 169.989 66.6592 170.674C67.4832 171.349 68.5307 171.687 69.8015 171.687C71.3206 171.687 72.6261 171.155 73.7183 170.093L77.1436 171.701C76.2897 172.913 75.2671 173.811 74.0757 174.397C72.8843 174.973 71.4695 175.261 69.8313 175.261C67.2896 175.261 65.2196 174.462 63.6211 172.863C62.0226 171.255 61.2234 169.244 61.2234 166.832C61.2234 164.359 62.0177 162.309 63.6062 160.681C65.2047 159.043 67.2052 158.224 69.6079 158.224C72.1595 158.224 74.2345 159.043 75.833 160.681C77.4315 162.309 78.2307 164.464 78.2307 167.144L78.2158 167.919ZM74.1353 164.717C73.8672 163.813 73.336 163.079 72.5417 162.513C71.7574 161.947 70.844 161.664 69.8015 161.664C68.6697 161.664 67.6768 161.982 66.823 162.617C66.2869 163.014 65.7904 163.714 65.3337 164.717H74.1353Z" fill="black"/>
<path d="M80.5688 158.641H84.0537V160.681C84.431 159.877 84.9324 159.266 85.5579 158.849C86.1833 158.432 86.8684 158.224 87.613 158.224C88.1392 158.224 88.6903 158.363 89.2661 158.641L88.0002 162.14C87.5237 161.902 87.1315 161.783 86.8237 161.783C86.1982 161.783 85.6671 162.17 85.2302 162.945C84.8033 163.719 84.5898 165.238 84.5898 167.502L84.6047 168.291V174.844H80.5688V158.641Z" fill="black"/>
<path d="M101.21 160.904L98.6931 163.421C97.6705 162.408 96.7422 161.902 95.9082 161.902C95.4515 161.902 95.0941 162.001 94.8359 162.2C94.5778 162.389 94.4487 162.627 94.4487 162.915C94.4487 163.133 94.5282 163.337 94.687 163.525C94.8558 163.704 95.2629 163.952 95.9082 164.27L97.3975 165.015C98.9661 165.789 100.043 166.578 100.629 167.383C101.215 168.187 101.508 169.13 101.508 170.212C101.508 171.652 100.977 172.853 99.9143 173.816C98.8619 174.779 97.4471 175.261 95.6699 175.261C93.307 175.261 91.4206 174.337 90.0107 172.491L92.5127 169.765C92.9893 170.321 93.5452 170.773 94.1807 171.121C94.826 171.458 95.3969 171.627 95.8933 171.627C96.4294 171.627 96.8613 171.498 97.189 171.24C97.5166 170.982 97.6804 170.684 97.6804 170.346C97.6804 169.721 97.0897 169.11 95.9082 168.514L94.5381 167.829C91.917 166.509 90.6064 164.856 90.6064 162.87C90.6064 161.589 91.0979 160.497 92.0808 159.594C93.0736 158.68 94.3395 158.224 95.8784 158.224C96.9308 158.224 97.9187 158.457 98.842 158.924C99.7753 159.38 100.565 160.041 101.21 160.904Z" fill="black"/>
<path d="M124.025 152.386H128.076V174.844H124.025V173.131C123.231 173.886 122.432 174.432 121.628 174.769C120.833 175.097 119.97 175.261 119.036 175.261C116.941 175.261 115.13 174.452 113.601 172.833C112.072 171.205 111.307 169.185 111.307 166.772C111.307 164.27 112.047 162.22 113.526 160.621C115.005 159.023 116.802 158.224 118.917 158.224C119.89 158.224 120.804 158.407 121.657 158.775C122.511 159.142 123.301 159.693 124.025 160.428V152.386ZM119.751 161.977C118.49 161.977 117.443 162.423 116.609 163.317C115.775 164.201 115.358 165.337 115.358 166.727C115.358 168.127 115.78 169.279 116.624 170.182C117.478 171.086 118.525 171.538 119.766 171.538C121.047 171.538 122.109 171.096 122.953 170.212C123.797 169.319 124.219 168.152 124.219 166.712C124.219 165.303 123.797 164.161 122.953 163.287C122.109 162.413 121.042 161.977 119.751 161.977Z" fill="black"/>
<path d="M144.16 158.641H148.211V174.844H144.16V173.131C143.366 173.886 142.567 174.432 141.762 174.769C140.968 175.097 140.104 175.261 139.171 175.261C137.076 175.261 135.264 174.452 133.735 172.833C132.206 171.205 131.442 169.185 131.442 166.772C131.442 164.27 132.182 162.22 133.661 160.621C135.14 159.023 136.937 158.224 139.052 158.224C140.025 158.224 140.938 158.407 141.792 158.775C142.646 159.142 143.435 159.693 144.16 160.428V158.641ZM139.886 161.977C138.625 161.977 137.578 162.423 136.744 163.317C135.91 164.201 135.493 165.337 135.493 166.727C135.493 168.127 135.915 169.279 136.759 170.182C137.612 171.086 138.66 171.538 139.901 171.538C141.182 171.538 142.244 171.096 143.088 170.212C143.932 169.319 144.354 168.152 144.354 166.712C144.354 165.303 143.932 164.161 143.088 163.287C142.244 162.413 141.177 161.977 139.886 161.977Z" fill="black"/>
<path d="M164.295 152.386H168.346V174.844H164.295V173.131C163.501 173.886 162.701 174.432 161.897 174.769C161.103 175.097 160.239 175.261 159.306 175.261C157.211 175.261 155.399 174.452 153.87 172.833C152.341 171.205 151.577 169.185 151.577 166.772C151.577 164.27 152.316 162.22 153.796 160.621C155.275 159.023 157.072 158.224 159.187 158.224C160.16 158.224 161.073 158.407 161.927 158.775C162.781 159.142 163.57 159.693 164.295 160.428V152.386ZM160.021 161.977C158.76 161.977 157.712 162.423 156.878 163.317C156.044 164.201 155.627 165.337 155.627 166.727C155.627 168.127 156.049 169.279 156.893 170.182C157.747 171.086 158.795 171.538 160.036 171.538C161.316 171.538 162.379 171.096 163.223 170.212C164.067 169.319 164.489 168.152 164.489 166.712C164.489 165.303 164.067 164.161 163.223 163.287C162.379 162.413 161.311 161.977 160.021 161.977Z" fill="black"/>
<path d="M179.292 152.937H191.399V157.047H187.408V174.844H183.179V157.047H179.292V152.937Z" fill="black"/>
<path d="M210.045 167.919H196.984C197.173 169.07 197.674 169.989 198.488 170.674C199.312 171.349 200.36 171.687 201.631 171.687C203.15 171.687 204.455 171.155 205.547 170.093L208.973 171.701C208.119 172.913 207.096 173.811 205.905 174.397C204.713 174.973 203.299 175.261 201.66 175.261C199.119 175.261 197.049 174.462 195.45 172.863C193.852 171.255 193.052 169.244 193.052 166.832C193.052 164.359 193.847 162.309 195.435 160.681C197.034 159.043 199.034 158.224 201.437 158.224C203.989 158.224 206.064 159.043 207.662 160.681C209.261 162.309 210.06 164.464 210.06 167.144L210.045 167.919ZM205.964 164.717C205.696 163.813 205.165 163.079 204.371 162.513C203.587 161.947 202.673 161.664 201.631 161.664C200.499 161.664 199.506 161.982 198.652 162.617C198.116 163.014 197.62 163.714 197.163 164.717H205.964Z" fill="black"/>
<path d="M229.212 161.917L225.831 163.779C225.196 163.113 224.565 162.652 223.94 162.394C223.324 162.135 222.599 162.006 221.765 162.006C220.246 162.006 219.015 162.463 218.072 163.376C217.139 164.28 216.672 165.442 216.672 166.861C216.672 168.241 217.124 169.368 218.027 170.242C218.931 171.116 220.117 171.552 221.587 171.552C223.404 171.552 224.818 170.932 225.831 169.691L229.033 171.88C227.295 174.134 224.843 175.261 221.676 175.261C218.827 175.261 216.593 174.417 214.974 172.729C213.366 171.041 212.562 169.065 212.562 166.802C212.562 165.233 212.954 163.788 213.738 162.468C214.523 161.148 215.615 160.11 217.015 159.355C218.424 158.601 219.998 158.224 221.736 158.224C223.344 158.224 224.789 158.546 226.069 159.192C227.35 159.827 228.398 160.736 229.212 161.917Z" fill="black"/>
<path d="M232.89 158.641H236.941V160.294C237.864 159.519 238.698 158.983 239.443 158.685C240.197 158.378 240.967 158.224 241.751 158.224C243.36 158.224 244.725 158.785 245.847 159.906C246.79 160.86 247.261 162.269 247.261 164.136V174.844H243.24V167.74C243.24 165.804 243.151 164.518 242.972 163.883C242.804 163.247 242.501 162.766 242.064 162.438C241.637 162.101 241.106 161.932 240.47 161.932C239.646 161.932 238.937 162.21 238.341 162.766C237.755 163.312 237.348 164.071 237.12 165.044C237 165.551 236.941 166.648 236.941 168.336V174.844H232.89V158.641Z" fill="black"/>
<path d="M258.818 158.224C260.347 158.224 261.782 158.606 263.122 159.37C264.472 160.135 265.525 161.172 266.279 162.483C267.034 163.793 267.411 165.208 267.411 166.727C267.411 168.256 267.029 169.686 266.264 171.016C265.51 172.347 264.477 173.389 263.167 174.144C261.856 174.888 260.412 175.261 258.833 175.261C256.51 175.261 254.524 174.437 252.876 172.789C251.238 171.131 250.419 169.12 250.419 166.757C250.419 164.225 251.347 162.116 253.204 160.428C254.832 158.958 256.703 158.224 258.818 158.224ZM258.878 162.051C257.617 162.051 256.564 162.493 255.72 163.376C254.886 164.25 254.469 165.372 254.469 166.742C254.469 168.152 254.882 169.294 255.706 170.167C256.54 171.041 257.592 171.478 258.863 171.478C260.134 171.478 261.191 171.036 262.035 170.153C262.879 169.269 263.301 168.132 263.301 166.742C263.301 165.352 262.884 164.225 262.05 163.362C261.226 162.488 260.168 162.051 258.878 162.051Z" fill="black"/>
<path d="M270.315 152.386H274.381V174.844H270.315V152.386Z" fill="black"/>
<path d="M285.684 158.224C287.213 158.224 288.648 158.606 289.988 159.37C291.339 160.135 292.391 161.172 293.146 162.483C293.9 163.793 294.277 165.208 294.277 166.727C294.277 168.256 293.895 169.686 293.131 171.016C292.376 172.347 291.344 173.389 290.033 174.144C288.722 174.888 287.278 175.261 285.699 175.261C283.376 175.261 281.39 174.437 279.742 172.789C278.104 171.131 277.285 169.12 277.285 166.757C277.285 164.225 278.213 162.116 280.07 160.428C281.698 158.958 283.57 158.224 285.684 158.224ZM285.744 162.051C284.483 162.051 283.431 162.493 282.587 163.376C281.753 164.25 281.336 165.372 281.336 166.742C281.336 168.152 281.748 169.294 282.572 170.167C283.406 171.041 284.458 171.478 285.729 171.478C287 171.478 288.057 171.036 288.901 170.153C289.745 169.269 290.167 168.132 290.167 166.742C290.167 165.352 289.75 164.225 288.916 163.362C288.092 162.488 287.035 162.051 285.744 162.051ZM286.489 149.839H291.299L285.848 155.677H282.929L286.489 149.839Z" fill="black"/>
<path d="M309.587 158.641H313.638V172.521C313.638 175.261 313.087 177.276 311.985 178.567C310.505 180.314 308.276 181.188 305.298 181.188C303.709 181.188 302.374 180.989 301.292 180.592C300.21 180.195 299.296 179.609 298.552 178.835C297.807 178.07 297.256 177.137 296.898 176.035H301.381C301.778 176.492 302.29 176.834 302.915 177.063C303.541 177.301 304.28 177.42 305.134 177.42C306.226 177.42 307.105 177.251 307.77 176.914C308.435 176.576 308.902 176.139 309.17 175.603C309.448 175.067 309.587 174.144 309.587 172.833C308.872 173.548 308.122 174.064 307.338 174.382C306.554 174.69 305.665 174.844 304.672 174.844C302.498 174.844 300.661 174.059 299.162 172.491C297.663 170.922 296.913 168.936 296.913 166.534C296.913 163.962 297.708 161.897 299.296 160.338C300.736 158.929 302.453 158.224 304.449 158.224C305.382 158.224 306.261 158.397 307.085 158.745C307.919 159.082 308.753 159.643 309.587 160.428V158.641ZM305.372 162.021C304.092 162.021 303.034 162.453 302.2 163.317C301.366 164.171 300.949 165.248 300.949 166.549C300.949 167.899 301.376 169.006 302.23 169.87C303.084 170.733 304.156 171.165 305.447 171.165C306.708 171.165 307.745 170.743 308.559 169.899C309.383 169.056 309.795 167.948 309.795 166.578C309.795 165.228 309.383 164.131 308.559 163.287C307.735 162.443 306.673 162.021 305.372 162.021Z" fill="black"/>
<path d="M340.936 161.917L337.555 163.779C336.92 163.113 336.289 162.652 335.664 162.394C335.048 162.135 334.323 162.006 333.49 162.006C331.97 162.006 330.739 162.463 329.796 163.376C328.863 164.28 328.396 165.442 328.396 166.861C328.396 168.241 328.848 169.368 329.751 170.242C330.655 171.116 331.841 171.552 333.311 171.552C335.128 171.552 336.542 170.932 337.555 169.691L340.757 171.88C339.02 174.134 336.567 175.261 333.4 175.261C330.551 175.261 328.317 174.417 326.698 172.729C325.09 171.041 324.286 169.065 324.286 166.802C324.286 165.233 324.678 163.788 325.462 162.468C326.247 161.148 327.339 160.11 328.739 159.355C330.149 158.601 331.722 158.224 333.46 158.224C335.068 158.224 336.513 158.546 337.793 159.192C339.074 159.827 340.122 160.736 340.936 161.917Z" fill="black"/>
<path d="M356.588 158.641H360.639V174.844H356.588V173.131C355.794 173.886 354.994 174.432 354.19 174.769C353.396 175.097 352.532 175.261 351.599 175.261C349.504 175.261 347.692 174.452 346.163 172.833C344.634 171.205 343.87 169.185 343.87 166.772C343.87 164.27 344.609 162.22 346.089 160.621C347.568 159.023 349.365 158.224 351.48 158.224C352.453 158.224 353.366 158.407 354.22 158.775C355.074 159.142 355.863 159.693 356.588 160.428V158.641ZM352.314 161.977C351.053 161.977 350.005 162.423 349.171 163.317C348.337 164.201 347.92 165.337 347.92 166.727C347.92 168.127 348.342 169.279 349.186 170.182C350.04 171.086 351.088 171.538 352.329 171.538C353.609 171.538 354.672 171.096 355.516 170.212C356.36 169.319 356.781 168.152 356.781 166.712C356.781 165.303 356.36 164.161 355.516 163.287C354.672 162.413 353.604 161.977 352.314 161.977Z" fill="black"/>
<path fill-rule="evenodd" clip-rule="evenodd" d="M41.1929 174.844V158.641H37.1123V174.844H41.1929Z" fill="black"/>
<path d="M37.1123 152.728V156.466H41.1929V152.728H37.1123Z" fill="black"/>
<path fill-rule="evenodd" clip-rule="evenodd" d="M108.358 174.844V158.641H104.278V174.844H108.358Z" fill="black"/>
<path d="M104.278 152.766V156.504H108.358V152.766H104.278Z" fill="black"/>
<path fill-rule="evenodd" clip-rule="evenodd" d="M321.382 174.844V158.641H317.301V174.844H321.382Z" fill="black"/>
<path d="M317.301 152.743V156.481H321.382V152.743H317.301Z" fill="black"/>
<path d="M67.2085 192.093H78.0801V196.159H71.3337V200.135H78.0801V204.141H71.3337V214H67.2085V192.093Z" fill="black"/>
<path d="M100.657 191.542H104.708V214H100.657V212.287C99.863 213.042 99.0637 213.588 98.2595 213.926C97.4652 214.253 96.6015 214.417 95.6682 214.417C93.5733 214.417 91.7614 213.608 90.2324 211.99C88.7035 210.361 87.939 208.341 87.939 205.928C87.939 203.426 88.6786 201.376 90.158 199.778C91.6373 198.179 93.4343 197.38 95.5491 197.38C96.5221 197.38 97.4355 197.564 98.2893 197.931C99.1432 198.298 99.9325 198.849 100.657 199.584V191.542ZM96.3831 201.133C95.1222 201.133 94.0747 201.58 93.2407 202.473C92.4067 203.357 91.9897 204.494 91.9897 205.884C91.9897 207.283 92.4117 208.435 93.2556 209.339C94.1095 210.242 95.1569 210.694 96.3979 210.694C97.6787 210.694 98.7411 210.252 99.585 209.368C100.429 208.475 100.851 207.308 100.851 205.869C100.851 204.459 100.429 203.317 99.585 202.443C98.7411 201.57 97.6737 201.133 96.3831 201.133Z" fill="black"/>
<path d="M125.051 207.075H111.99C112.179 208.227 112.681 209.145 113.495 209.83C114.319 210.505 115.366 210.843 116.637 210.843C118.156 210.843 119.462 210.312 120.554 209.249L123.979 210.858C123.125 212.069 122.103 212.967 120.911 213.553C119.72 214.129 118.305 214.417 116.667 214.417C114.125 214.417 112.055 213.618 110.457 212.019C108.858 210.411 108.059 208.4 108.059 205.988C108.059 203.516 108.853 201.465 110.442 199.837C112.04 198.199 114.041 197.38 116.443 197.38C118.995 197.38 121.07 198.199 122.668 199.837C124.267 201.465 125.066 203.62 125.066 206.301L125.051 207.075ZM120.971 203.873C120.703 202.97 120.171 202.235 119.377 201.669C118.593 201.103 117.679 200.82 116.637 200.82C115.505 200.82 114.512 201.138 113.658 201.773C113.122 202.17 112.626 202.87 112.169 203.873H120.971Z" fill="black"/>
<path d="M127.926 191.542H131.991V214H127.926V191.542Z" fill="black"/>
<path d="M143.012 192.093H147.301L152.811 207.656L158.396 192.093H162.685L154.792 214H150.771L143.012 192.093Z" fill="black"/>
<path d="M181.822 207.075H168.761C168.95 208.227 169.451 209.145 170.265 209.83C171.089 210.505 172.137 210.843 173.407 210.843C174.927 210.843 176.232 210.312 177.324 209.249L180.75 210.858C179.896 212.069 178.873 212.967 177.682 213.553C176.49 214.129 175.075 214.417 173.437 214.417C170.896 214.417 168.826 213.618 167.227 212.019C165.629 210.411 164.829 208.4 164.829 205.988C164.829 203.516 165.624 201.465 167.212 199.837C168.811 198.199 170.811 197.38 173.214 197.38C175.765 197.38 177.84 198.199 179.439 199.837C181.037 201.465 181.837 203.62 181.837 206.301L181.822 207.075ZM177.741 203.873C177.473 202.97 176.942 202.235 176.148 201.669C175.363 201.103 174.45 200.82 173.407 200.82C172.276 200.82 171.283 201.138 170.429 201.773C169.893 202.17 169.396 202.87 168.94 203.873H177.741Z" fill="black"/>
<path d="M184.696 191.542H188.762V214H184.696V191.542Z" fill="black"/>
<path d="M204.429 197.797H208.479V214H204.429V212.287C203.634 213.042 202.835 213.588 202.031 213.926C201.237 214.253 200.373 214.417 199.44 214.417C197.345 214.417 195.533 213.608 194.004 211.99C192.475 210.361 191.71 208.341 191.71 205.928C191.71 203.426 192.45 201.376 193.929 199.778C195.409 198.179 197.206 197.38 199.321 197.38C200.294 197.38 201.207 197.564 202.061 197.931C202.915 198.298 203.704 198.849 204.429 199.584V197.797ZM200.155 201.133C198.894 201.133 197.846 201.58 197.012 202.473C196.178 203.357 195.761 204.494 195.761 205.884C195.761 207.283 196.183 208.435 197.027 209.339C197.881 210.242 198.928 210.694 200.169 210.694C201.45 210.694 202.513 210.252 203.356 209.368C204.2 208.475 204.622 207.308 204.622 205.869C204.622 204.459 204.2 203.317 203.356 202.443C202.513 201.57 201.445 201.133 200.155 201.133ZM201.182 188.995H205.992L200.542 194.833H197.623L201.182 188.995Z" fill="black"/>
<path d="M211.89 197.797H224.325L217.028 210.56H223.908V214H210.773L218.1 201.237H211.89V197.797Z" fill="black"/>
<path d="M238.592 197.797H242.643V219.927H238.592V212.287C237.798 213.042 236.999 213.588 236.195 213.926C235.4 214.253 234.537 214.417 233.603 214.417C231.508 214.417 229.696 213.608 228.167 211.99C226.639 210.361 225.874 208.341 225.874 205.928C225.874 203.426 226.614 201.376 228.093 199.778C229.572 198.179 231.369 197.38 233.484 197.38C234.457 197.38 235.371 197.564 236.224 197.931C237.078 198.298 237.868 198.849 238.592 199.584V197.797ZM234.318 201.133C233.057 201.133 232.01 201.58 231.176 202.473C230.342 203.357 229.925 204.494 229.925 205.884C229.925 207.283 230.347 208.435 231.191 209.339C232.045 210.242 233.092 210.694 234.333 210.694C235.614 210.694 236.676 210.252 237.52 209.368C238.364 208.475 238.786 207.308 238.786 205.869C238.786 204.459 238.364 203.317 237.52 202.443C236.676 201.57 235.609 201.133 234.318 201.133Z" fill="black"/>
<path d="M246.739 197.797H250.849V205.601C250.849 207.12 250.953 208.177 251.162 208.773C251.37 209.358 251.703 209.815 252.159 210.143C252.626 210.47 253.197 210.634 253.872 210.634C254.547 210.634 255.118 210.475 255.585 210.158C256.061 209.83 256.414 209.354 256.642 208.728C256.811 208.261 256.895 207.264 256.895 205.735V197.797H260.976V204.662C260.976 207.492 260.752 209.428 260.306 210.47C259.76 211.741 258.955 212.719 257.893 213.404C256.831 214.079 255.48 214.417 253.842 214.417C252.065 214.417 250.625 214.02 249.523 213.226C248.431 212.431 247.662 211.324 247.215 209.905C246.897 208.922 246.739 207.135 246.739 204.543V197.797Z" fill="black"/>
<path d="M281.304 207.075H268.243C268.432 208.227 268.933 209.145 269.748 209.83C270.572 210.505 271.619 210.843 272.89 210.843C274.409 210.843 275.715 210.312 276.807 209.249L280.232 210.858C279.378 212.069 278.355 212.967 277.164 213.553C275.973 214.129 274.558 214.417 272.92 214.417C270.378 214.417 268.308 213.618 266.709 212.019C265.111 210.411 264.312 208.4 264.312 205.988C264.312 203.516 265.106 201.465 266.695 199.837C268.293 198.199 270.294 197.38 272.696 197.38C275.248 197.38 277.323 198.199 278.921 199.837C280.52 201.465 281.319 203.62 281.319 206.301L281.304 207.075ZM277.224 203.873C276.956 202.97 276.424 202.235 275.63 201.669C274.846 201.103 273.932 200.82 272.89 200.82C271.758 200.82 270.765 201.138 269.911 201.773C269.375 202.17 268.879 202.87 268.422 203.873H277.224Z" fill="black"/>
<path d="M283.91 197.797H296.346L289.048 210.56H295.929V214H282.793L290.121 201.237H283.91V197.797Z" fill="black"/>
<path fill-rule="evenodd" clip-rule="evenodd" d="M84.9902 214V197.797H80.9097V214H84.9902Z" fill="black"/>
<path d="M37.1123 152.728V156.466H41.1929V152.728H37.1123Z" fill="black"/>
<path d="M80.9097 191.885V195.623H84.9902V191.885H80.9097Z" fill="black"/>
</svg>
